<?xml version="1.0" encoding="UTF-8"?>
<svg width="48px" height="48px" viewBox="0 0 48 48" version="1.1" xmlns="http://www.w3.org/2000/svg" xmlns:xlink="http://www.w3.org/1999/xlink">
    <title>icon/draw_rigid_colour copy</title>
    <g id="icon/draw_rigid_colour-copy" stroke="none" stroke-width="1" fill="none" fill-rule="evenodd">
        <rect id="State" x="0" y="0" width="48" height="48" rx="4"></rect>
        <g id="RigidArea" transform="translate(7.000000, 8.000000)" fill="#3BA4FF" stroke="#12333D" stroke-width="2">
            <rect id="Rectangle-Copy-5" transform="translate(15.000000, 12.500000) rotate(180.000000) translate(-15.000000, -12.500000) " x="1" y="1" width="28" height="23" rx="4"></rect>
        </g>
        <g id="Pencil" transform="translate(34.000000, 31.000000) rotate(45.000000) translate(-34.000000, -31.000000) translate(31.000000, 19.000000)" stroke="#12333D" stroke-width="2">
            <path d="M0,4 L0,20.7142857 C2.55560363e-16,20.9879627 0.112164977,21.2496809 0.310344828,21.4384236 L2.31034483,23.3431856 C2.69655172,23.7110016 3.30344828,23.7110016 3.68965517,23.3431856 L5.68965517,21.4384236 C5.88783502,21.2496809 6,20.9879627 6,20.7142857 L6,4 L6,4 L0,4 Z" id="Path-2" fill="#FABC14"></path>
            <path d="M2,0 L4,0 C5.1045695,-2.02906125e-16 6,0.8954305 6,2 L6,4 L6,4 L0,4 L0,2 C-1.3527075e-16,0.8954305 0.8954305,2.02906125e-16 2,0 Z" id="Rectangle" fill="#4FD7CF"></path>
        </g>
    </g>
</svg>