<?xml version="1.0" encoding="UTF-8"?>
<svg width="48px" height="48px" viewBox="0 0 48 48" version="1.1" xmlns="http://www.w3.org/2000/svg" xmlns:xlink="http://www.w3.org/1999/xlink">
    <title>icon/erase_rigid_colour</title>
    <g id="icon/erase_rigid_colour" stroke="none" stroke-width="1" fill="none" fill-rule="evenodd">
        <rect id="State" x="0" y="0" width="48" height="48" rx="4"></rect>
        <g id="RigidArea" transform="translate(7.000000, 8.000000)" stroke-width="2">
            <rect id="Rectangle-Copy-7" stroke="#12333D" fill="#3BA4FF" transform="translate(15.000000, 12.500000) rotate(180.000000) translate(-15.000000, -12.500000) " x="1" y="1" width="28" height="23" rx="4"></rect>
            <path d="M5,6.45454545 L5,19.5454545 C5,20.3487778 5.74619208,21 6.66666667,21 C7.58714125,21 8.33333333,20.3487778 8.33333333,19.5454545 L8.33333333,6.45454545 C8.33333333,5.65122218 9.07952542,5 10,5 C10.9204746,5 11.6666667,5.65122218 11.6666667,6.45454545 L11.6666667,19.5454545 C11.6666667,20.3487778 12.4128588,21 13.3333333,21 C14.2538079,21 15,20.3487778 15,19.5454545 L15,6.45454545 C15,5.65122218 15.7461921,5 16.6666667,5 C17.5871412,5 18.3333333,5.65122218 18.3333333,6.45454545 L18.3333333,19.5454545 C18.3333333,20.3487778 19.0795254,21 20,21 C20.9204746,21 21.6666667,20.3487778 21.6666667,19.5454545 L21.6666667,6.45454545 C21.6666667,5.65122218 22.4128588,5 23.3333333,5 C24.2538079,5 25,5.65122218 25,6.45454545 L25,19.5454545" id="Shape-Copy" stroke="#FFFFFF" opacity="0.75" stroke-linecap="round"></path>
        </g>
        <g id="Eraser" transform="translate(28.000000, 19.000000)" stroke="#12333D" stroke-width="2">
            <path d="M0,6 L0,20 C6.76353751e-17,20.5522847 0.44771525,21 1,21 L14,21 C14.5522847,21 15,20.5522847 15,20 L15,6 L15,6 L0,6 Z" id="Path-2" fill="#FABC14"></path>
            <path d="M4,0 L11,0 C13.209139,-4.05812251e-16 15,1.790861 15,4 L15,6 L15,6 L0,6 L0,4 C-2.705415e-16,1.790861 1.790861,4.05812251e-16 4,0 Z" id="Rectangle" fill="#FFFFFF"></path>
        </g>
    </g>
</svg>