<?xml version="1.0" encoding="UTF-8"?>
<svg width="48px" height="48px" viewBox="0 0 48 48" version="1.1" xmlns="http://www.w3.org/2000/svg" xmlns:xlink="http://www.w3.org/1999/xlink">
    <title>icon/erase_rigid_colour copy</title>
    <g id="icon/erase_rigid_colour-copy" stroke="none" stroke-width="1" fill="none" fill-rule="evenodd">
        <rect id="State" x="0" y="0" width="48" height="48" rx="4"></rect>
        <g id="RigidArea" transform="translate(7.000000, 8.000000)" fill="#3BA4FF" stroke="#12333D" stroke-width="2">
            <rect id="Rectangle-Copy-7" transform="translate(15.000000, 12.500000) rotate(180.000000) translate(-15.000000, -12.500000) " x="1" y="1" width="28" height="23" rx="4"></rect>
        </g>
        <g id="Eraser" transform="translate(28.000000, 19.000000)" stroke="#12333D" stroke-width="2">
            <path d="M0,6 L0,20 C6.76353751e-17,20.5522847 0.44771525,21 1,21 L14,21 C14.5522847,21 15,20.5522847 15,20 L15,6 L15,6 L0,6 Z" id="Path-2" fill="#FABC14"></path>
            <path d="M4,0 L11,0 C13.209139,-4.05812251e-16 15,1.790861 15,4 L15,6 L15,6 L0,6 L0,4 C-2.705415e-16,1.790861 1.790861,4.05812251e-16 4,0 Z" id="Rectangle" fill="#FFFFFF"></path>
        </g>
    </g>
</svg>